<?xml version="1.0" standalone="no"?>
<!DOCTYPE svg PUBLIC "-//W3C//DTD SVG 20010904//EN"
 "http://www.w3.org/TR/2001/REC-SVG-20010904/DTD/svg10.dtd">
<svg version="1.0" xmlns="http://www.w3.org/2000/svg"
 width="736.000000pt" height="736.000000pt" viewBox="0 0 736.000000 736.000000"
 preserveAspectRatio="xMidYMid meet">
<metadata>
Created by potrace 1.11, written by Peter Selinger 2001-2013
</metadata>
<g transform="translate(0.000000,736.000000) scale(0.100000,-0.100000)"
fill="#000000" stroke="none">
<path d="M3547 7354 c-1 -1 -49 -4 -107 -7 -58 -3 -140 -11 -183 -17 -42 -6
-82 -8 -87 -5 -6 3 -10 2 -10 -3 0 -5 -6 -9 -12 -10 -59 -4 -127 -14 -161 -23
-23 -6 -51 -12 -62 -13 -59 -7 -288 -70 -425 -116 -448 -153 -855 -385 -1215
-694 -80 -68 -388 -376 -377 -376 4 0 2 -4 -3 -8 -6 -4 -36 -38 -68 -77 -31
-38 -65 -79 -76 -91 -10 -11 -24 -32 -31 -45 -7 -13 -16 -26 -20 -29 -20 -14
-169 -248 -253 -395 -27 -48 -115 -224 -132 -265 -10 -25 -28 -67 -40 -95 -32
-71 -121 -322 -131 -366 -6 -27 -11 -46 -29 -109 -18 -62 -41 -168 -65 -295
-11 -61 -17 -102 -25 -178 -4 -32 -8 -68 -11 -80 -20 -105 -21 -651 0 -752 2
-11 7 -47 10 -80 7 -58 34 -235 42 -265 2 -8 12 -53 22 -100 25 -114 77 -292
113 -393 17 -45 32 -86 33 -92 2 -5 8 -23 14 -38 7 -16 12 -30 12 -31 0 -2 11
-29 25 -60 14 -31 26 -59 27 -64 2 -11 145 -290 175 -342 31 -54 184 -289 206
-316 9 -10 41 -52 71 -93 130 -174 345 -399 521 -548 28 -23 60 -50 72 -60 36
-30 166 -128 203 -153 13 -8 35 -25 50 -37 15 -13 31 -23 34 -23 3 0 37 -20
74 -44 37 -24 87 -56 112 -70 52 -30 362 -185 406 -203 170 -69 354 -133 448
-155 31 -7 56 -15 56 -18 0 -3 8 -6 18 -7 9 -1 28 -4 42 -7 50 -10 76 -16 100
-22 14 -3 35 -7 47 -9 11 -2 29 -6 40 -9 10 -3 38 -8 63 -11 25 -3 56 -7 70
-10 14 -3 48 -8 75 -11 28 -3 61 -8 75 -10 127 -23 742 -22 812 0 7 3 36 7 63
10 78 9 109 14 177 27 35 6 74 13 88 15 14 2 52 11 85 19 33 9 71 18 85 21 14
3 30 7 35 8 8 2 50 15 105 31 3 1 19 5 35 9 17 4 37 11 46 16 9 5 36 14 60 21
56 16 49 14 84 28 274 108 450 194 665 326 102 63 163 105 168 118 2 4 9 7 15
7 7 0 25 11 41 25 16 14 32 25 35 25 3 0 20 13 38 28 37 32 58 49 98 80 146
114 413 384 535 542 19 25 37 47 40 50 3 3 22 27 41 55 18 27 39 55 44 62 24
29 33 42 86 123 69 105 139 225 139 238 0 6 3 12 7 14 13 5 102 185 96 192 -4
3 -1 6 5 6 7 0 12 9 12 20 0 11 5 20 10 20 6 0 10 8 10 18 0 10 4 22 9 28 4 5
17 32 27 59 10 28 24 61 31 75 7 14 13 32 13 41 0 8 4 19 9 25 8 9 69 187 76
222 2 9 4 17 5 17 2 0 3 3 35 130 29 115 34 138 50 220 43 227 58 409 58 680
1 110 -2 238 -6 285 -10 133 -18 204 -23 220 -3 8 -8 37 -10 65 -3 27 -12 81
-20 120 -9 38 -18 81 -20 95 -20 104 -59 247 -99 365 -15 44 -28 85 -30 90 -1
6 -7 21 -12 35 -6 14 -19 45 -28 70 -9 25 -25 63 -35 85 -9 22 -23 57 -31 78
-7 20 -17 37 -21 37 -4 0 -8 6 -8 14 0 34 -163 324 -278 494 -206 306 -473
598 -741 810 -18 15 -41 34 -51 42 -10 8 -28 22 -40 30 -13 8 -34 25 -48 38
-14 12 -31 22 -38 22 -7 0 -14 3 -16 8 -4 9 -85 72 -93 72 -4 0 -26 14 -50 30
-57 39 -214 130 -225 130 -5 0 -10 3 -12 8 -4 8 -262 132 -328 157 -25 10 -59
23 -76 31 -37 16 -280 97 -344 115 -25 7 -49 14 -55 15 -5 2 -23 6 -40 9 -16
3 -51 12 -77 20 -25 7 -49 11 -51 8 -3 -2 -14 0 -24 5 -16 9 -48 15 -138 27
-11 1 -20 4 -20 5 0 1 -11 3 -25 4 -27 2 -135 15 -185 22 -73 11 -499 25 -508
18z m283 -1738 c52 -4 102 -8 110 -10 8 -1 38 -6 65 -10 87 -14 247 -56 341
-92 51 -19 97 -34 103 -34 6 0 11 -4 11 -10 0 -5 6 -10 14 -10 18 0 147 -68
245 -129 440 -273 762 -738 866 -1251 3 -14 10 -46 15 -71 28 -138 31 -480 5
-609 -3 -14 -7 -36 -10 -49 -2 -14 -10 -50 -16 -80 -7 -31 -13 -63 -14 -71 -1
-8 -5 -22 -8 -30 -3 -8 -19 -55 -35 -105 -17 -49 -41 -112 -53 -140 -13 -27
-24 -52 -24 -55 -16 -61 -170 -303 -276 -434 -60 -73 -226 -232 -294 -281 -16
-11 -33 -25 -39 -30 -19 -18 -148 -100 -211 -135 -33 -18 -66 -38 -74 -44 -8
-6 -15 -10 -15 -8 -1 2 -30 -10 -66 -26 -84 -38 -228 -87 -310 -107 -93 -22
-100 -24 -140 -30 -20 -3 -47 -8 -60 -10 -91 -18 -343 -24 -475 -11 -80 8
-247 40 -286 55 -15 5 -29 7 -32 5 -3 -3 -19 2 -36 11 -17 8 -31 13 -31 10 0
-4 -6 -3 -12 2 -7 4 -20 8 -28 10 -8 1 -32 9 -55 19 -22 9 -49 20 -60 24 -11
4 -46 20 -77 34 l-57 27 39 57 c22 31 43 62 48 67 4 6 21 35 38 65 16 30 33
58 37 61 5 3 9 9 8 12 0 4 11 31 24 60 30 70 54 150 61 210 6 46 5 48 -12 39
-11 -6 -23 -11 -29 -12 -5 -1 -21 -7 -35 -12 -14 -6 -29 -11 -35 -12 -5 -2
-17 -6 -25 -9 -57 -22 -148 -40 -215 -41 -37 -1 -42 -5 -69 -51 -64 -111 -146
-225 -162 -225 -3 0 -11 6 -18 13 -7 6 -27 23 -44 36 -35 27 -38 33 -19 53 20
21 112 150 134 188 63 108 149 290 138 290 -2 0 3 19 11 43 9 23 17 49 19 57
9 41 58 130 92 165 44 47 125 105 145 105 8 0 23 7 34 15 32 24 56 17 129 -35
76 -55 233 -136 277 -144 15 -3 31 -7 36 -10 13 -8 60 -16 127 -22 72 -7 69
-7 75 -5 3 1 30 3 60 5 30 2 84 9 120 16 70 13 72 14 110 23 14 4 36 9 50 11
14 2 39 10 55 16 53 21 155 49 155 42 0 -8 -80 -63 -160 -110 -103 -61 -215
-110 -265 -117 -57 -7 -212 -8 -225 0 -4 3 -27 -14 -51 -36 -24 -23 -81 -64
-126 -92 -46 -27 -82 -52 -80 -53 3 -3 113 -20 187 -29 51 -6 230 -6 305 0 95
7 288 52 390 91 11 4 22 8 25 8 3 1 49 19 103 40 58 24 92 43 85 47 -7 4 -46
12 -86 19 -39 7 -71 15 -69 16 3 4 92 13 187 19 25 2 142 4 260 5 118 0 220 4
227 8 6 4 14 19 17 32 3 14 8 36 11 50 15 59 12 241 -6 327 -58 290 -161 473
-576 1026 -108 144 -232 315 -274 380 -86 130 -96 140 -219 219 -86 55 -121
75 -285 163 l-90 49 -105 -23 c-58 -12 -112 -23 -120 -26 -8 -2 -55 -12 -105
-24 -80 -18 -93 -24 -123 -58 -35 -40 -80 -127 -106 -205 -14 -41 -15 -53 -2
-100 7 -29 21 -69 31 -88 15 -33 20 -35 65 -37 l50 -1 -16 36 c-24 56 -31 108
-20 161 8 36 13 35 20 -4 9 -47 42 -105 85 -150 26 -28 40 -35 62 -33 31 4 32
8 18 47 -18 45 -24 96 -19 141 5 36 8 41 14 25 52 -126 93 -185 130 -185 13 0
37 5 54 11 25 8 29 14 22 27 -5 9 -12 26 -16 37 -10 28 -13 145 -3 145 4 0 15
-21 25 -47 9 -27 29 -63 43 -82 14 -19 29 -38 32 -43 3 -4 26 -1 51 7 l45 16
6 77 c7 95 14 115 36 107 9 -4 31 -8 50 -11 48 -6 49 -8 39 -66 -16 -86 -6
-141 31 -179 40 -40 104 -51 145 -24 31 21 37 17 75 -46 l21 -37 -35 -21 c-38
-22 -44 -41 -20 -61 8 -7 15 -17 15 -22 0 -6 8 -22 18 -36 34 -49 91 -196 107
-279 16 -77 16 -201 2 -258 -10 -39 -41 -111 -60 -138 l-19 -28 33 -33 c60
-58 172 -186 164 -186 -5 0 -42 21 -100 57 -130 80 -414 225 -473 242 -126 36
-316 -4 -494 -104 l-47 -26 66 -81 67 -81 -41 24 c-22 13 -72 43 -111 67 -39
23 -75 42 -80 42 -6 0 -12 3 -14 8 -3 7 -178 124 -255 169 -63 38 -182 92
-211 97 -15 2 -27 5 -27 6 0 6 -52 12 -115 12 -65 0 -106 -4 -145 -16 -11 -3
-13 -4 -99 -35 -70 -26 -187 -94 -280 -163 -37 -28 -69 -48 -72 -46 -13 14 -2
290 16 416 20 134 81 363 108 407 4 6 7 15 8 21 2 13 86 197 94 204 3 3 14 21
24 40 101 186 275 392 456 540 30 25 57 47 60 50 11 11 123 86 168 113 200
117 445 213 622 242 19 3 60 10 90 15 30 6 93 12 139 15 46 2 85 6 87 7 4 4
105 1 214 -6z"/>
<path d="M3534 4483 c-38 -12 -70 -23 -71 -24 -2 -1 -6 -2 -10 -3 -5 -1 -22
-6 -40 -10 -31 -7 -31 -8 -19 -39 7 -18 12 -43 11 -56 -2 -23 -1 -23 59 -19
68 6 178 55 196 87 8 16 4 25 -24 53 l-33 33 -69 -22z"/>
<path d="M3150 4400 c0 -3 -30 -5 -66 -5 -36 0 -67 -2 -69 -5 -8 -13 42 -93
60 -96 117 -19 219 5 211 49 -6 32 -18 57 -29 58 -37 4 -107 3 -107 -1z"/>
<path d="M2978 2987 c-16 -6 -28 -14 -28 -19 0 -4 -6 -8 -13 -8 -34 0 -116
-133 -131 -211 -8 -42 -48 -159 -56 -164 -20 -12 -11 -35 13 -31 163 30 419
135 555 228 43 30 46 37 20 42 -45 9 -190 82 -266 133 -35 24 -64 43 -65 42
-1 -1 -14 -6 -29 -12z"/>
</g>
</svg>
